# Tiled2Unity generated file. Do not modify by hand.
# Wavefront file for 'Level2_mesh_0010.obj'

# Vertices (Count = 36)
v -5056 -5440 0
v -5120 -5440 0
v -5120 -5376 0
v -5056 -5376 0
v -5056 -5504 0
v -5120 -5504 0
v -5120 -5440 0
v -5056 -5440 0
v -5056 -5568 0
v -5120 -5568 0
v -5120 -5504 0
v -5056 -5504 0
v -5056 -5632 0
v -5120 -5632 0
v -5120 -5568 0
v -5056 -5568 0
v -5056 -5696 0
v -5120 -5696 0
v -5120 -5632 0
v -5056 -5632 0
v -5056 -5760 0
v -5120 -5760 0
v -5120 -5696 0
v -5056 -5696 0
v -5056 -5824 0
v -5120 -5824 0
v -5120 -5760 0
v -5056 -5760 0
v -5056 -5888 0
v -5120 -5888 0
v -5120 -5824 0
v -5056 -5824 0
v -5056 -5952 0
v -5120 -5952 0
v -5120 -5888 0
v -5056 -5888 0

# Texture cooridinates (Count = 4)
vt 0 0
vt 1 0
vt 1 1
vt 0 1

# Normal
vn 0 0 -1

# Mesh description
g Level2_mesh_0010

# Faces
f 1/1/1 2/2/1 3/3/1 4/4/1
f 5/1/1 6/2/1 7/3/1 8/4/1
f 9/1/1 10/2/1 11/3/1 12/4/1
f 13/1/1 14/2/1 15/3/1 16/4/1
f 17/1/1 18/2/1 19/3/1 20/4/1
f 21/1/1 22/2/1 23/3/1 24/4/1
f 25/1/1 26/2/1 27/3/1 28/4/1
f 29/1/1 30/2/1 31/3/1 32/4/1
f 33/1/1 34/2/1 35/3/1 36/4/1

