# Tiled2Unity generated file. Do not modify by hand.
# Wavefront file for 'Level2_mesh_0018.obj'

# Vertices (Count = 96)
v -4736 -832 0
v -4800 -832 0
v -4800 -768 0
v -4736 -768 0
v -2432 -1024 0
v -2496 -1024 0
v -2496 -960 0
v -2432 -960 0
v -4160 -1024 0
v -4224 -1024 0
v -4224 -960 0
v -4160 -960 0
v -3072 -1216 0
v -3136 -1216 0
v -3136 -1152 0
v -3072 -1152 0
v -5888 -1216 0
v -5952 -1216 0
v -5952 -1152 0
v -5888 -1152 0
v -832 -1408 0
v -896 -1408 0
v -896 -1344 0
v -832 -1344 0
v -2432 -1920 0
v -2496 -1920 0
v -2496 -1856 0
v -2432 -1856 0
v -4160 -1920 0
v -4224 -1920 0
v -4224 -1856 0
v -4160 -1856 0
v -576 -2624 0
v -640 -2624 0
v -640 -2560 0
v -576 -2560 0
v -576 -2944 0
v -640 -2944 0
v -640 -2880 0
v -576 -2880 0
v -3392 -3072 0
v -3456 -3072 0
v -3456 -3008 0
v -3392 -3008 0
v -832 -3264 0
v -896 -3264 0
v -896 -3200 0
v -832 -3200 0
v -768 -3328 0
v -832 -3328 0
v -832 -3264 0
v -768 -3264 0
v -704 -3392 0
v -768 -3392 0
v -768 -3328 0
v -704 -3328 0
v -640 -3456 0
v -704 -3456 0
v -704 -3392 0
v -640 -3392 0
v -576 -3520 0
v -640 -3520 0
v -640 -3456 0
v -576 -3456 0
v -512 -3584 0
v -576 -3584 0
v -576 -3520 0
v -512 -3520 0
v -448 -3648 0
v -512 -3648 0
v -512 -3584 0
v -448 -3584 0
v -384 -3712 0
v -448 -3712 0
v -448 -3648 0
v -384 -3648 0
v -320 -3776 0
v -384 -3776 0
v -384 -3712 0
v -320 -3712 0
v -896 -3776 0
v -960 -3776 0
v -960 -3712 0
v -896 -3712 0
v -3392 -3904 0
v -3456 -3904 0
v -3456 -3840 0
v -3392 -3840 0
v -2944 -4800 0
v -3008 -4800 0
v -3008 -4736 0
v -2944 -4736 0
v -1856 -5824 0
v -1920 -5824 0
v -1920 -5760 0
v -1856 -5760 0

# Texture cooridinates (Count = 4)
vt 0 0
vt 1 0
vt 1 1
vt 0 1

# Normal
vn 0 0 -1

# Mesh description
g Level2_mesh_0018

# Faces
f 1/1/1 2/2/1 3/3/1 4/4/1
f 5/1/1 6/2/1 7/3/1 8/4/1
f 9/1/1 10/2/1 11/3/1 12/4/1
f 13/1/1 14/2/1 15/3/1 16/4/1
f 17/1/1 18/2/1 19/3/1 20/4/1
f 21/1/1 22/2/1 23/3/1 24/4/1
f 25/1/1 26/2/1 27/3/1 28/4/1
f 29/1/1 30/2/1 31/3/1 32/4/1
f 33/1/1 34/2/1 35/3/1 36/4/1
f 37/1/1 38/2/1 39/3/1 40/4/1
f 41/1/1 42/2/1 43/3/1 44/4/1
f 45/1/1 46/2/1 47/3/1 48/4/1
f 49/1/1 50/2/1 51/3/1 52/4/1
f 53/1/1 54/2/1 55/3/1 56/4/1
f 57/1/1 58/2/1 59/3/1 60/4/1
f 61/1/1 62/2/1 63/3/1 64/4/1
f 65/1/1 66/2/1 67/3/1 68/4/1
f 69/1/1 70/2/1 71/3/1 72/4/1
f 73/1/1 74/2/1 75/3/1 76/4/1
f 77/1/1 78/2/1 79/3/1 80/4/1
f 81/1/1 82/2/1 83/3/1 84/4/1
f 85/1/1 86/2/1 87/3/1 88/4/1
f 89/1/1 90/2/1 91/3/1 92/4/1
f 93/1/1 94/2/1 95/3/1 96/4/1

