# Tiled2Unity generated file. Do not modify by hand.
# Wavefront file for 'Level2_mesh_0020.obj'

# Vertices (Count = 88)
v -5760 -832 0
v -5824 -832 0
v -5824 -768 0
v -5760 -768 0
v -2816 -1024 0
v -2880 -1024 0
v -2880 -960 0
v -2816 -960 0
v -4544 -1024 0
v -4608 -1024 0
v -4608 -960 0
v -4544 -960 0
v -3968 -1216 0
v -4032 -1216 0
v -4032 -1152 0
v -3968 -1152 0
v -6336 -1216 0
v -6400 -1216 0
v -6400 -1152 0
v -6336 -1152 0
v -2816 -1920 0
v -2880 -1920 0
v -2880 -1856 0
v -2816 -1856 0
v -4544 -1920 0
v -4608 -1920 0
v -4608 -1856 0
v -4544 -1856 0
v -1344 -2624 0
v -1408 -2624 0
v -1408 -2560 0
v -1344 -2560 0
v -1344 -2944 0
v -1408 -2944 0
v -1408 -2880 0
v -1344 -2880 0
v -3648 -3072 0
v -3712 -3072 0
v -3712 -3008 0
v -3648 -3008 0
v -1088 -3264 0
v -1152 -3264 0
v -1152 -3200 0
v -1088 -3200 0
v -1152 -3328 0
v -1216 -3328 0
v -1216 -3264 0
v -1152 -3264 0
v -1216 -3392 0
v -1280 -3392 0
v -1280 -3328 0
v -1216 -3328 0
v -1280 -3456 0
v -1344 -3456 0
v -1344 -3392 0
v -1280 -3392 0
v -1344 -3520 0
v -1408 -3520 0
v -1408 -3456 0
v -1344 -3456 0
v -1408 -3584 0
v -1472 -3584 0
v -1472 -3520 0
v -1408 -3520 0
v -1472 -3648 0
v -1536 -3648 0
v -1536 -3584 0
v -1472 -3584 0
v -1536 -3712 0
v -1600 -3712 0
v -1600 -3648 0
v -1536 -3648 0
v -1024 -3776 0
v -1088 -3776 0
v -1088 -3712 0
v -1024 -3712 0
v -1600 -3776 0
v -1664 -3776 0
v -1664 -3712 0
v -1600 -3712 0
v -3648 -3904 0
v -3712 -3904 0
v -3712 -3840 0
v -3648 -3840 0
v -5056 -4800 0
v -5120 -4800 0
v -5120 -4736 0
v -5056 -4736 0

# Texture cooridinates (Count = 4)
vt 0 0
vt 1 0
vt 1 1
vt 0 1

# Normal
vn 0 0 -1

# Mesh description
g Level2_mesh_0020

# Faces
f 1/1/1 2/2/1 3/3/1 4/4/1
f 5/1/1 6/2/1 7/3/1 8/4/1
f 9/1/1 10/2/1 11/3/1 12/4/1
f 13/1/1 14/2/1 15/3/1 16/4/1
f 17/1/1 18/2/1 19/3/1 20/4/1
f 21/1/1 22/2/1 23/3/1 24/4/1
f 25/1/1 26/2/1 27/3/1 28/4/1
f 29/1/1 30/2/1 31/3/1 32/4/1
f 33/1/1 34/2/1 35/3/1 36/4/1
f 37/1/1 38/2/1 39/3/1 40/4/1
f 41/1/1 42/2/1 43/3/1 44/4/1
f 45/1/1 46/2/1 47/3/1 48/4/1
f 49/1/1 50/2/1 51/3/1 52/4/1
f 53/1/1 54/2/1 55/3/1 56/4/1
f 57/1/1 58/2/1 59/3/1 60/4/1
f 61/1/1 62/2/1 63/3/1 64/4/1
f 65/1/1 66/2/1 67/3/1 68/4/1
f 69/1/1 70/2/1 71/3/1 72/4/1
f 73/1/1 74/2/1 75/3/1 76/4/1
f 77/1/1 78/2/1 79/3/1 80/4/1
f 81/1/1 82/2/1 83/3/1 84/4/1
f 85/1/1 86/2/1 87/3/1 88/4/1

