# Tiled2Unity generated file. Do not modify by hand.
# Wavefront file for 'Level2_mesh_0015.obj'

# Vertices (Count = 64)
v -256 -832 0
v -320 -832 0
v -320 -768 0
v -256 -768 0
v -5760 -1600 0
v -5824 -1600 0
v -5824 -1536 0
v -5760 -1536 0
v -1088 -1664 0
v -1152 -1664 0
v -1152 -1600 0
v -1088 -1600 0
v -3968 -1664 0
v -4032 -1664 0
v -4032 -1600 0
v -3968 -1600 0
v -3648 -1856 0
v -3712 -1856 0
v -3712 -1792 0
v -3648 -1792 0
v -2560 -2176 0
v -2624 -2176 0
v -2624 -2112 0
v -2560 -2112 0
v -1152 -2816 0
v -1216 -2816 0
v -1216 -2752 0
v -1152 -2752 0
v -1024 -3136 0
v -1088 -3136 0
v -1088 -3072 0
v -1024 -3072 0
v -1536 -3904 0
v -1600 -3904 0
v -1600 -3840 0
v -1536 -3840 0
v -1472 -3968 0
v -1536 -3968 0
v -1536 -3904 0
v -1472 -3904 0
v -1408 -4032 0
v -1472 -4032 0
v -1472 -3968 0
v -1408 -3968 0
v -1344 -4096 0
v -1408 -4096 0
v -1408 -4032 0
v -1344 -4032 0
v -1280 -4160 0
v -1344 -4160 0
v -1344 -4096 0
v -1280 -4096 0
v -1216 -4224 0
v -1280 -4224 0
v -1280 -4160 0
v -1216 -4160 0
v -1152 -4288 0
v -1216 -4288 0
v -1216 -4224 0
v -1152 -4224 0
v -1088 -4352 0
v -1152 -4352 0
v -1152 -4288 0
v -1088 -4288 0

# Texture cooridinates (Count = 4)
vt 0 0
vt 1 0
vt 1 1
vt 0 1

# Normal
vn 0 0 -1

# Mesh description
g Level2_mesh_0015

# Faces
f 1/1/1 2/2/1 3/3/1 4/4/1
f 5/1/1 6/2/1 7/3/1 8/4/1
f 9/1/1 10/2/1 11/3/1 12/4/1
f 13/1/1 14/2/1 15/3/1 16/4/1
f 17/1/1 18/2/1 19/3/1 20/4/1
f 21/1/1 22/2/1 23/3/1 24/4/1
f 25/1/1 26/2/1 27/3/1 28/4/1
f 29/1/1 30/2/1 31/3/1 32/4/1
f 33/1/1 34/2/1 35/3/1 36/4/1
f 37/1/1 38/2/1 39/3/1 40/4/1
f 41/1/1 42/2/1 43/3/1 44/4/1
f 45/1/1 46/2/1 47/3/1 48/4/1
f 49/1/1 50/2/1 51/3/1 52/4/1
f 53/1/1 54/2/1 55/3/1 56/4/1
f 57/1/1 58/2/1 59/3/1 60/4/1
f 61/1/1 62/2/1 63/3/1 64/4/1

