# Tiled2Unity generated file. Do not modify by hand.
# Wavefront file for 'Level2_mesh_0026.obj'

# Vertices (Count = 64)
v -3968 -1408 0
v -4032 -1408 0
v -4032 -1344 0
v -3968 -1344 0
v -5760 -1472 0
v -5824 -1472 0
v -5824 -1408 0
v -5760 -1408 0
v -256 -2304 0
v -320 -2304 0
v -320 -2240 0
v -256 -2240 0
v -1088 -2624 0
v -1152 -2624 0
v -1152 -2560 0
v -1088 -2560 0
v -1152 -2944 0
v -1216 -2944 0
v -1216 -2880 0
v -1152 -2880 0
v -1024 -3264 0
v -1088 -3264 0
v -1088 -3200 0
v -1024 -3200 0
v -1088 -3328 0
v -1152 -3328 0
v -1152 -3264 0
v -1088 -3264 0
v -1152 -3392 0
v -1216 -3392 0
v -1216 -3328 0
v -1152 -3328 0
v -1216 -3456 0
v -1280 -3456 0
v -1280 -3392 0
v -1216 -3392 0
v -1280 -3520 0
v -1344 -3520 0
v -1344 -3456 0
v -1280 -3456 0
v -1344 -3584 0
v -1408 -3584 0
v -1408 -3520 0
v -1344 -3520 0
v -1408 -3648 0
v -1472 -3648 0
v -1472 -3584 0
v -1408 -3584 0
v -1472 -3712 0
v -1536 -3712 0
v -1536 -3648 0
v -1472 -3648 0
v -1536 -3776 0
v -1600 -3776 0
v -1600 -3712 0
v -1536 -3712 0
v -2560 -4800 0
v -2624 -4800 0
v -2624 -4736 0
v -2560 -4736 0
v -3648 -4800 0
v -3712 -4800 0
v -3712 -4736 0
v -3648 -4736 0

# Texture cooridinates (Count = 4)
vt 0 0
vt 1 0
vt 1 1
vt 0 1

# Normal
vn 0 0 -1

# Mesh description
g Level2_mesh_0026

# Faces
f 1/1/1 2/2/1 3/3/1 4/4/1
f 5/1/1 6/2/1 7/3/1 8/4/1
f 9/1/1 10/2/1 11/3/1 12/4/1
f 13/1/1 14/2/1 15/3/1 16/4/1
f 17/1/1 18/2/1 19/3/1 20/4/1
f 21/1/1 22/2/1 23/3/1 24/4/1
f 25/1/1 26/2/1 27/3/1 28/4/1
f 29/1/1 30/2/1 31/3/1 32/4/1
f 33/1/1 34/2/1 35/3/1 36/4/1
f 37/1/1 38/2/1 39/3/1 40/4/1
f 41/1/1 42/2/1 43/3/1 44/4/1
f 45/1/1 46/2/1 47/3/1 48/4/1
f 49/1/1 50/2/1 51/3/1 52/4/1
f 53/1/1 54/2/1 55/3/1 56/4/1
f 57/1/1 58/2/1 59/3/1 60/4/1
f 61/1/1 62/2/1 63/3/1 64/4/1

