# Tiled2Unity generated file. Do not modify by hand.
# Wavefront file for 'startroom_hallway_mesh_0001.obj'

# Vertices (Count = 80)
v -50 -69 0
v -51 -69 0
v -51 -68 0
v -50 -68 0
v -51 -69 0
v -52 -69 0
v -52 -68 0
v -51 -68 0
v -52 -69 0
v -53 -69 0
v -53 -68 0
v -52 -68 0
v -53 -69 0
v -54 -69 0
v -54 -68 0
v -53 -68 0
v -54 -69 0
v -55 -69 0
v -55 -68 0
v -54 -68 0
v -55 -69 0
v -56 -69 0
v -56 -68 0
v -55 -68 0
v -56 -69 0
v -57 -69 0
v -57 -68 0
v -56 -68 0
v -57 -69 0
v -58 -69 0
v -58 -68 0
v -57 -68 0
v -58 -69 0
v -59 -69 0
v -59 -68 0
v -58 -68 0
v -59 -69 0
v -60 -69 0
v -60 -68 0
v -59 -68 0
v -60 -69 0
v -61 -69 0
v -61 -68 0
v -60 -68 0
v -61 -69 0
v -62 -69 0
v -62 -68 0
v -61 -68 0
v -62 -69 0
v -63 -69 0
v -63 -68 0
v -62 -68 0
v -63 -69 0
v -64 -69 0
v -64 -68 0
v -63 -68 0
v -64 -69 0
v -65 -69 0
v -65 -68 0
v -64 -68 0
v -65 -69 0
v -66 -69 0
v -66 -68 0
v -65 -68 0
v -66 -69 0
v -67 -69 0
v -67 -68 0
v -66 -68 0
v -67 -69 0
v -68 -69 0
v -68 -68 0
v -67 -68 0
v -68 -69 0
v -69 -69 0
v -69 -68 0
v -68 -68 0
v -69 -69 0
v -70 -69 0
v -70 -68 0
v -69 -68 0

# Texture cooridinates (Count = 4)
vt 0 0
vt 1 0
vt 1 1
vt 0 1

# Normal
vn 0 0 -1

# Mesh description
g startroom_hallway_mesh_0001

# Faces
f 1/1/1 2/2/1 3/3/1 4/4/1
f 5/1/1 6/2/1 7/3/1 8/4/1
f 9/1/1 10/2/1 11/3/1 12/4/1
f 13/1/1 14/2/1 15/3/1 16/4/1
f 17/1/1 18/2/1 19/3/1 20/4/1
f 21/1/1 22/2/1 23/3/1 24/4/1
f 25/1/1 26/2/1 27/3/1 28/4/1
f 29/1/1 30/2/1 31/3/1 32/4/1
f 33/1/1 34/2/1 35/3/1 36/4/1
f 37/1/1 38/2/1 39/3/1 40/4/1
f 41/1/1 42/2/1 43/3/1 44/4/1
f 45/1/1 46/2/1 47/3/1 48/4/1
f 49/1/1 50/2/1 51/3/1 52/4/1
f 53/1/1 54/2/1 55/3/1 56/4/1
f 57/1/1 58/2/1 59/3/1 60/4/1
f 61/1/1 62/2/1 63/3/1 64/4/1
f 65/1/1 66/2/1 67/3/1 68/4/1
f 69/1/1 70/2/1 71/3/1 72/4/1
f 73/1/1 74/2/1 75/3/1 76/4/1
f 77/1/1 78/2/1 79/3/1 80/4/1

