# Tiled2Unity generated file. Do not modify by hand.
# Wavefront file for 'startroom_hallway_mesh_0010.obj'

# Vertices (Count = 152)
v -70 -70 0
v -71 -70 0
v -71 -69 0
v -70 -69 0
v -71 -70 0
v -72 -70 0
v -72 -69 0
v -71 -69 0
v -72 -70 0
v -73 -70 0
v -73 -69 0
v -72 -69 0
v -73 -70 0
v -74 -70 0
v -74 -69 0
v -73 -69 0
v -74 -70 0
v -75 -70 0
v -75 -69 0
v -74 -69 0
v -75 -70 0
v -76 -70 0
v -76 -69 0
v -75 -69 0
v -76 -70 0
v -77 -70 0
v -77 -69 0
v -76 -69 0
v -77 -70 0
v -78 -70 0
v -78 -69 0
v -77 -69 0
v -78 -70 0
v -79 -70 0
v -79 -69 0
v -78 -69 0
v -79 -70 0
v -80 -70 0
v -80 -69 0
v -79 -69 0
v -70 -71 0
v -71 -71 0
v -71 -70 0
v -70 -70 0
v -71 -71 0
v -72 -71 0
v -72 -70 0
v -71 -70 0
v -72 -71 0
v -73 -71 0
v -73 -70 0
v -72 -70 0
v -73 -71 0
v -74 -71 0
v -74 -70 0
v -73 -70 0
v -74 -71 0
v -75 -71 0
v -75 -70 0
v -74 -70 0
v -75 -71 0
v -76 -71 0
v -76 -70 0
v -75 -70 0
v -76 -71 0
v -77 -71 0
v -77 -70 0
v -76 -70 0
v -77 -71 0
v -78 -71 0
v -78 -70 0
v -77 -70 0
v -78 -71 0
v -79 -71 0
v -79 -70 0
v -78 -70 0
v -79 -71 0
v -80 -71 0
v -80 -70 0
v -79 -70 0
v -44 -72 0
v -45 -72 0
v -45 -71 0
v -44 -71 0
v -45 -72 0
v -46 -72 0
v -46 -71 0
v -45 -71 0
v -70 -72 0
v -71 -72 0
v -71 -71 0
v -70 -71 0
v -71 -72 0
v -72 -72 0
v -72 -71 0
v -71 -71 0
v -72 -72 0
v -73 -72 0
v -73 -71 0
v -72 -71 0
v -73 -72 0
v -74 -72 0
v -74 -71 0
v -73 -71 0
v -74 -72 0
v -75 -72 0
v -75 -71 0
v -74 -71 0
v -75 -72 0
v -76 -72 0
v -76 -71 0
v -75 -71 0
v -76 -72 0
v -77 -72 0
v -77 -71 0
v -76 -71 0
v -77 -72 0
v -78 -72 0
v -78 -71 0
v -77 -71 0
v -78 -72 0
v -79 -72 0
v -79 -71 0
v -78 -71 0
v -79 -72 0
v -80 -72 0
v -80 -71 0
v -79 -71 0
v -44 -73 0
v -45 -73 0
v -45 -72 0
v -44 -72 0
v -45 -73 0
v -46 -73 0
v -46 -72 0
v -45 -72 0
v -48 -74 0
v -49 -74 0
v -49 -73 0
v -48 -73 0
v -49 -74 0
v -50 -74 0
v -50 -73 0
v -49 -73 0
v -48 -75 0
v -49 -75 0
v -49 -74 0
v -48 -74 0
v -49 -75 0
v -50 -75 0
v -50 -74 0
v -49 -74 0

# Texture cooridinates (Count = 8)
vt 0.25 0.875
vt 0.375 0.875
vt 0.375 1
vt 0.25 1
vt 0.125 0.625
vt 0.25 0.625
vt 0.25 0.75
vt 0.125 0.75

# Normal
vn 0 0 -1

# Mesh description
g startroom_hallway_mesh_0010

# Faces
f 1/1/1 2/2/1 3/3/1 4/4/1
f 5/1/1 6/2/1 7/3/1 8/4/1
f 9/1/1 10/2/1 11/3/1 12/4/1
f 13/1/1 14/2/1 15/3/1 16/4/1
f 17/1/1 18/2/1 19/3/1 20/4/1
f 21/1/1 22/2/1 23/3/1 24/4/1
f 25/1/1 26/2/1 27/3/1 28/4/1
f 29/1/1 30/2/1 31/3/1 32/4/1
f 33/1/1 34/2/1 35/3/1 36/4/1
f 37/1/1 38/2/1 39/3/1 40/4/1
f 41/1/1 42/2/1 43/3/1 44/4/1
f 45/1/1 46/2/1 47/3/1 48/4/1
f 49/1/1 50/2/1 51/3/1 52/4/1
f 53/1/1 54/2/1 55/3/1 56/4/1
f 57/1/1 58/2/1 59/3/1 60/4/1
f 61/1/1 62/2/1 63/3/1 64/4/1
f 65/1/1 66/2/1 67/3/1 68/4/1
f 69/1/1 70/2/1 71/3/1 72/4/1
f 73/1/1 74/2/1 75/3/1 76/4/1
f 77/1/1 78/2/1 79/3/1 80/4/1
f 81/1/1 82/2/1 83/3/1 84/4/1
f 85/1/1 86/2/1 87/3/1 88/4/1
f 89/1/1 90/2/1 91/3/1 92/4/1
f 93/1/1 94/2/1 95/3/1 96/4/1
f 97/1/1 98/2/1 99/3/1 100/4/1
f 101/1/1 102/2/1 103/3/1 104/4/1
f 105/1/1 106/2/1 107/3/1 108/4/1
f 109/1/1 110/2/1 111/3/1 112/4/1
f 113/1/1 114/2/1 115/3/1 116/4/1
f 117/1/1 118/2/1 119/3/1 120/4/1
f 121/1/1 122/2/1 123/3/1 124/4/1
f 125/1/1 126/2/1 127/3/1 128/4/1
f 129/1/1 130/2/1 131/3/1 132/4/1
f 133/1/1 134/2/1 135/3/1 136/4/1
f 137/5/1 138/6/1 139/7/1 140/8/1
f 141/5/1 142/6/1 143/7/1 144/8/1
f 145/5/1 146/6/1 147/7/1 148/8/1
f 149/5/1 150/6/1 151/7/1 152/8/1

