# Tiled2Unity generated file. Do not modify by hand.
# Wavefront file for 'startroom_hallway_mesh_0012.obj'

# Vertices (Count = 120)
v -49 -78 0
v -50 -78 0
v -50 -77 0
v -49 -77 0
v -59 -78 0
v -60 -78 0
v -60 -77 0
v -59 -77 0
v -69 -78 0
v -70 -78 0
v -70 -77 0
v -69 -77 0
v -79 -78 0
v -80 -78 0
v -80 -77 0
v -79 -77 0
v -45 -79 0
v -46 -79 0
v -46 -78 0
v -45 -78 0
v -48 -79 0
v -49 -79 0
v -49 -78 0
v -48 -78 0
v -49 -79 0
v -50 -79 0
v -50 -78 0
v -49 -78 0
v -58 -79 0
v -59 -79 0
v -59 -78 0
v -58 -78 0
v -59 -79 0
v -60 -79 0
v -60 -78 0
v -59 -78 0
v -64 -79 0
v -65 -79 0
v -65 -78 0
v -64 -78 0
v -65 -79 0
v -66 -79 0
v -66 -78 0
v -65 -78 0
v -68 -79 0
v -69 -79 0
v -69 -78 0
v -68 -78 0
v -69 -79 0
v -70 -79 0
v -70 -78 0
v -69 -78 0
v -74 -79 0
v -75 -79 0
v -75 -78 0
v -74 -78 0
v -75 -79 0
v -76 -79 0
v -76 -78 0
v -75 -78 0
v -78 -79 0
v -79 -79 0
v -79 -78 0
v -78 -78 0
v -79 -79 0
v -80 -79 0
v -80 -78 0
v -79 -78 0
v -49 -80 0
v -50 -80 0
v -50 -79 0
v -49 -79 0
v -59 -80 0
v -60 -80 0
v -60 -79 0
v -59 -79 0
v -64 -80 0
v -65 -80 0
v -65 -79 0
v -64 -79 0
v -65 -80 0
v -66 -80 0
v -66 -79 0
v -65 -79 0
v -69 -80 0
v -70 -80 0
v -70 -79 0
v -69 -79 0
v -74 -80 0
v -75 -80 0
v -75 -79 0
v -74 -79 0
v -75 -80 0
v -76 -80 0
v -76 -79 0
v -75 -79 0
v -79 -80 0
v -80 -80 0
v -80 -79 0
v -79 -79 0
v -44 -81 0
v -45 -81 0
v -45 -80 0
v -44 -80 0
v -64 -81 0
v -65 -81 0
v -65 -80 0
v -64 -80 0
v -65 -81 0
v -66 -81 0
v -66 -80 0
v -65 -80 0
v -74 -81 0
v -75 -81 0
v -75 -80 0
v -74 -80 0
v -75 -81 0
v -76 -81 0
v -76 -80 0
v -75 -80 0

# Texture cooridinates (Count = 19)
vt 0.25 0
vt 0.5 0
vt 0.5 0.25
vt 0.25 0.25
vt 0.5 1
vt 0.25 1
vt 0.25 0.75
vt 0.5 0.75
vt 0 0
vt 0 0.25
vt 0 0.75
vt 0 1
vt 0.75 0.75
vt 1 0.75
vt 1 1
vt 0.75 1
vt 0.5 0.5
vt 0.25 0.5
vt 0 0.5

# Normal
vn 0 0 -1

# Mesh description
g startroom_hallway_mesh_0012

# Faces
f 1/1/1 2/2/1 3/3/1 4/4/1
f 5/1/1 6/2/1 7/3/1 8/4/1
f 9/1/1 10/2/1 11/3/1 12/4/1
f 13/1/1 14/2/1 15/3/1 16/4/1
f 17/5/1 18/6/1 19/7/1 20/8/1
f 21/9/1 22/1/1 23/4/1 24/10/1
f 25/11/1 26/7/1 27/6/1 28/12/1
f 29/9/1 30/1/1 31/4/1 32/10/1
f 33/11/1 34/7/1 35/6/1 36/12/1
f 37/7/1 38/8/1 39/5/1 40/6/1
f 41/13/1 42/14/1 43/15/1 44/16/1
f 45/9/1 46/1/1 47/4/1 48/10/1
f 49/11/1 50/7/1 51/6/1 52/12/1
f 53/7/1 54/8/1 55/5/1 56/6/1
f 57/13/1 58/14/1 59/15/1 60/16/1
f 61/9/1 62/1/1 63/4/1 64/10/1
f 65/11/1 66/7/1 67/6/1 68/12/1
f 69/4/1 70/3/1 71/17/1 72/18/1
f 73/4/1 74/3/1 75/17/1 76/18/1
f 77/11/1 78/19/1 79/18/1 80/7/1
f 81/18/1 82/7/1 83/11/1 84/19/1
f 85/4/1 86/3/1 87/17/1 88/18/1
f 89/11/1 90/19/1 91/18/1 92/7/1
f 93/18/1 94/7/1 95/11/1 96/19/1
f 97/4/1 98/3/1 99/17/1 100/18/1
f 101/7/1 102/8/1 103/5/1 104/6/1
f 105/7/1 106/8/1 107/5/1 108/6/1
f 109/13/1 110/14/1 111/15/1 112/16/1
f 113/7/1 114/8/1 115/5/1 116/6/1
f 117/13/1 118/14/1 119/15/1 120/16/1

