# Tiled2Unity generated file. Do not modify by hand.
# Wavefront file for 'startroom_hallway_mesh_0002.obj'

# Vertices (Count = 52)
v -40 -70 0
v -41 -70 0
v -41 -69 0
v -40 -69 0
v -40 -71 0
v -41 -71 0
v -41 -70 0
v -40 -70 0
v -40 -72 0
v -41 -72 0
v -41 -71 0
v -40 -71 0
v -40 -73 0
v -41 -73 0
v -41 -72 0
v -40 -72 0
v -50 -74 0
v -51 -74 0
v -51 -73 0
v -50 -73 0
v -50 -75 0
v -51 -75 0
v -51 -74 0
v -50 -74 0
v -50 -76 0
v -51 -76 0
v -51 -75 0
v -50 -75 0
v -50 -77 0
v -51 -77 0
v -51 -76 0
v -50 -76 0
v -50 -78 0
v -51 -78 0
v -51 -77 0
v -50 -77 0
v -50 -79 0
v -51 -79 0
v -51 -78 0
v -50 -78 0
v -50 -80 0
v -51 -80 0
v -51 -79 0
v -50 -79 0
v -50 -81 0
v -51 -81 0
v -51 -80 0
v -50 -80 0
v -50 -82 0
v -51 -82 0
v -51 -81 0
v -50 -81 0

# Texture cooridinates (Count = 4)
vt 1 1
vt 0 1
vt 0 0
vt 1 0

# Normal
vn 0 0 -1

# Mesh description
g startroom_hallway_mesh_0002

# Faces
f 1/1/1 2/2/1 3/3/1 4/4/1
f 5/1/1 6/2/1 7/3/1 8/4/1
f 9/1/1 10/2/1 11/3/1 12/4/1
f 13/1/1 14/2/1 15/3/1 16/4/1
f 17/1/1 18/2/1 19/3/1 20/4/1
f 21/1/1 22/2/1 23/3/1 24/4/1
f 25/1/1 26/2/1 27/3/1 28/4/1
f 29/1/1 30/2/1 31/3/1 32/4/1
f 33/1/1 34/2/1 35/3/1 36/4/1
f 37/1/1 38/2/1 39/3/1 40/4/1
f 41/1/1 42/2/1 43/3/1 44/4/1
f 45/1/1 46/2/1 47/3/1 48/4/1
f 49/1/1 50/2/1 51/3/1 52/4/1

