# Tiled2Unity generated file. Do not modify by hand.
# Wavefront file for 'startroom_hallway2_mesh_0010.obj'

# Vertices (Count = 368)
v -1856 -2752 0
v -1920 -2752 0
v -1920 -2688 0
v -1856 -2688 0
v -1920 -2752 0
v -1984 -2752 0
v -1984 -2688 0
v -1920 -2688 0
v -1984 -2752 0
v -2048 -2752 0
v -2048 -2688 0
v -1984 -2688 0
v -2048 -2752 0
v -2112 -2752 0
v -2112 -2688 0
v -2048 -2688 0
v -2112 -2752 0
v -2176 -2752 0
v -2176 -2688 0
v -2112 -2688 0
v -2176 -2752 0
v -2240 -2752 0
v -2240 -2688 0
v -2176 -2688 0
v -2240 -2752 0
v -2304 -2752 0
v -2304 -2688 0
v -2240 -2688 0
v -2304 -2752 0
v -2368 -2752 0
v -2368 -2688 0
v -2304 -2688 0
v -2368 -2752 0
v -2432 -2752 0
v -2432 -2688 0
v -2368 -2688 0
v -2432 -2752 0
v -2496 -2752 0
v -2496 -2688 0
v -2432 -2688 0
v -2496 -2752 0
v -2560 -2752 0
v -2560 -2688 0
v -2496 -2688 0
v -2560 -2752 0
v -2624 -2752 0
v -2624 -2688 0
v -2560 -2688 0
v -2624 -2752 0
v -2688 -2752 0
v -2688 -2688 0
v -2624 -2688 0
v -2688 -2752 0
v -2752 -2752 0
v -2752 -2688 0
v -2688 -2688 0
v -2752 -2752 0
v -2816 -2752 0
v -2816 -2688 0
v -2752 -2688 0
v -2816 -2752 0
v -2880 -2752 0
v -2880 -2688 0
v -2816 -2688 0
v -2880 -2752 0
v -2944 -2752 0
v -2944 -2688 0
v -2880 -2688 0
v -2944 -2752 0
v -3008 -2752 0
v -3008 -2688 0
v -2944 -2688 0
v -3008 -2752 0
v -3072 -2752 0
v -3072 -2688 0
v -3008 -2688 0
v -3072 -2752 0
v -3136 -2752 0
v -3136 -2688 0
v -3072 -2688 0
v -3136 -2752 0
v -3200 -2752 0
v -3200 -2688 0
v -3136 -2688 0
v -3200 -2752 0
v -3264 -2752 0
v -3264 -2688 0
v -3200 -2688 0
v -3264 -2752 0
v -3328 -2752 0
v -3328 -2688 0
v -3264 -2688 0
v -3328 -2752 0
v -3392 -2752 0
v -3392 -2688 0
v -3328 -2688 0
v -3392 -2752 0
v -3456 -2752 0
v -3456 -2688 0
v -3392 -2688 0
v -3456 -2752 0
v -3520 -2752 0
v -3520 -2688 0
v -3456 -2688 0
v -3520 -2752 0
v -3584 -2752 0
v -3584 -2688 0
v -3520 -2688 0
v -3584 -2752 0
v -3648 -2752 0
v -3648 -2688 0
v -3584 -2688 0
v -3648 -2752 0
v -3712 -2752 0
v -3712 -2688 0
v -3648 -2688 0
v -3712 -2752 0
v -3776 -2752 0
v -3776 -2688 0
v -3712 -2688 0
v -3776 -2752 0
v -3840 -2752 0
v -3840 -2688 0
v -3776 -2688 0
v -3840 -2752 0
v -3904 -2752 0
v -3904 -2688 0
v -3840 -2688 0
v -3904 -2752 0
v -3968 -2752 0
v -3968 -2688 0
v -3904 -2688 0
v -3968 -2752 0
v -4032 -2752 0
v -4032 -2688 0
v -3968 -2688 0
v -4032 -2752 0
v -4096 -2752 0
v -4096 -2688 0
v -4032 -2688 0
v -4096 -2752 0
v -4160 -2752 0
v -4160 -2688 0
v -4096 -2688 0
v -4160 -2752 0
v -4224 -2752 0
v -4224 -2688 0
v -4160 -2688 0
v -4224 -2752 0
v -4288 -2752 0
v -4288 -2688 0
v -4224 -2688 0
v -4288 -2752 0
v -4352 -2752 0
v -4352 -2688 0
v -4288 -2688 0
v -4352 -2752 0
v -4416 -2752 0
v -4416 -2688 0
v -4352 -2688 0
v -4416 -2752 0
v -4480 -2752 0
v -4480 -2688 0
v -4416 -2688 0
v -4480 -2752 0
v -4544 -2752 0
v -4544 -2688 0
v -4480 -2688 0
v -4544 -2752 0
v -4608 -2752 0
v -4608 -2688 0
v -4544 -2688 0
v -4608 -2752 0
v -4672 -2752 0
v -4672 -2688 0
v -4608 -2688 0
v -4672 -2752 0
v -4736 -2752 0
v -4736 -2688 0
v -4672 -2688 0
v -4736 -2752 0
v -4800 -2752 0
v -4800 -2688 0
v -4736 -2688 0
v -4800 -2752 0
v -4864 -2752 0
v -4864 -2688 0
v -4800 -2688 0
v -1856 -3008 0
v -1920 -3008 0
v -1920 -2944 0
v -1856 -2944 0
v -2496 -3008 0
v -2560 -3008 0
v -2560 -2944 0
v -2496 -2944 0
v -2560 -3008 0
v -2624 -3008 0
v -2624 -2944 0
v -2560 -2944 0
v -2624 -3008 0
v -2688 -3008 0
v -2688 -2944 0
v -2624 -2944 0
v -3328 -3008 0
v -3392 -3008 0
v -3392 -2944 0
v -3328 -2944 0
v -3392 -3008 0
v -3456 -3008 0
v -3456 -2944 0
v -3392 -2944 0
v -4096 -3008 0
v -4160 -3008 0
v -4160 -2944 0
v -4096 -2944 0
v -4160 -3008 0
v -4224 -3008 0
v -4224 -2944 0
v -4160 -2944 0
v -4800 -3008 0
v -4864 -3008 0
v -4864 -2944 0
v -4800 -2944 0
v -1856 -3648 0
v -1920 -3648 0
v -1920 -3584 0
v -1856 -3584 0
v -1920 -3648 0
v -1984 -3648 0
v -1984 -3584 0
v -1920 -3584 0
v -1984 -3648 0
v -2048 -3648 0
v -2048 -3584 0
v -1984 -3584 0
v -2048 -3648 0
v -2112 -3648 0
v -2112 -3584 0
v -2048 -3584 0
v -2112 -3648 0
v -2176 -3648 0
v -2176 -3584 0
v -2112 -3584 0
v -2176 -3648 0
v -2240 -3648 0
v -2240 -3584 0
v -2176 -3584 0
v -2240 -3648 0
v -2304 -3648 0
v -2304 -3584 0
v -2240 -3584 0
v -2304 -3648 0
v -2368 -3648 0
v -2368 -3584 0
v -2304 -3584 0
v -2368 -3648 0
v -2432 -3648 0
v -2432 -3584 0
v -2368 -3584 0
v -2624 -3648 0
v -2688 -3648 0
v -2688 -3584 0
v -2624 -3584 0
v -2688 -3648 0
v -2752 -3648 0
v -2752 -3584 0
v -2688 -3584 0
v -2752 -3648 0
v -2816 -3648 0
v -2816 -3584 0
v -2752 -3584 0
v -2816 -3648 0
v -2880 -3648 0
v -2880 -3584 0
v -2816 -3584 0
v -2880 -3648 0
v -2944 -3648 0
v -2944 -3584 0
v -2880 -3584 0
v -2944 -3648 0
v -3008 -3648 0
v -3008 -3584 0
v -2944 -3584 0
v -3008 -3648 0
v -3072 -3648 0
v -3072 -3584 0
v -3008 -3584 0
v -3072 -3648 0
v -3136 -3648 0
v -3136 -3584 0
v -3072 -3584 0
v -3136 -3648 0
v -3200 -3648 0
v -3200 -3584 0
v -3136 -3584 0
v -3392 -3648 0
v -3456 -3648 0
v -3456 -3584 0
v -3392 -3584 0
v -3456 -3648 0
v -3520 -3648 0
v -3520 -3584 0
v -3456 -3584 0
v -3520 -3648 0
v -3584 -3648 0
v -3584 -3584 0
v -3520 -3584 0
v -3584 -3648 0
v -3648 -3648 0
v -3648 -3584 0
v -3584 -3584 0
v -3648 -3648 0
v -3712 -3648 0
v -3712 -3584 0
v -3648 -3584 0
v -3712 -3648 0
v -3776 -3648 0
v -3776 -3584 0
v -3712 -3584 0
v -3776 -3648 0
v -3840 -3648 0
v -3840 -3584 0
v -3776 -3584 0
v -3840 -3648 0
v -3904 -3648 0
v -3904 -3584 0
v -3840 -3584 0
v -3904 -3648 0
v -3968 -3648 0
v -3968 -3584 0
v -3904 -3584 0
v -4160 -3648 0
v -4224 -3648 0
v -4224 -3584 0
v -4160 -3584 0
v -4224 -3648 0
v -4288 -3648 0
v -4288 -3584 0
v -4224 -3584 0
v -4288 -3648 0
v -4352 -3648 0
v -4352 -3584 0
v -4288 -3584 0
v -4352 -3648 0
v -4416 -3648 0
v -4416 -3584 0
v -4352 -3584 0
v -4416 -3648 0
v -4480 -3648 0
v -4480 -3584 0
v -4416 -3584 0
v -4480 -3648 0
v -4544 -3648 0
v -4544 -3584 0
v -4480 -3584 0
v -4544 -3648 0
v -4608 -3648 0
v -4608 -3584 0
v -4544 -3584 0
v -4608 -3648 0
v -4672 -3648 0
v -4672 -3584 0
v -4608 -3584 0
v -4672 -3648 0
v -4736 -3648 0
v -4736 -3584 0
v -4672 -3584 0

# Texture cooridinates (Count = 4)
vt 0 0
vt 1 0
vt 1 1
vt 0 1

# Normal
vn 0 0 -1

# Mesh description
g startroom_hallway2_mesh_0010

# Faces
f 1/1/1 2/2/1 3/3/1 4/4/1
f 5/1/1 6/2/1 7/3/1 8/4/1
f 9/1/1 10/2/1 11/3/1 12/4/1
f 13/1/1 14/2/1 15/3/1 16/4/1
f 17/1/1 18/2/1 19/3/1 20/4/1
f 21/1/1 22/2/1 23/3/1 24/4/1
f 25/1/1 26/2/1 27/3/1 28/4/1
f 29/1/1 30/2/1 31/3/1 32/4/1
f 33/1/1 34/2/1 35/3/1 36/4/1
f 37/1/1 38/2/1 39/3/1 40/4/1
f 41/1/1 42/2/1 43/3/1 44/4/1
f 45/1/1 46/2/1 47/3/1 48/4/1
f 49/1/1 50/2/1 51/3/1 52/4/1
f 53/1/1 54/2/1 55/3/1 56/4/1
f 57/1/1 58/2/1 59/3/1 60/4/1
f 61/1/1 62/2/1 63/3/1 64/4/1
f 65/1/1 66/2/1 67/3/1 68/4/1
f 69/1/1 70/2/1 71/3/1 72/4/1
f 73/1/1 74/2/1 75/3/1 76/4/1
f 77/1/1 78/2/1 79/3/1 80/4/1
f 81/1/1 82/2/1 83/3/1 84/4/1
f 85/1/1 86/2/1 87/3/1 88/4/1
f 89/1/1 90/2/1 91/3/1 92/4/1
f 93/1/1 94/2/1 95/3/1 96/4/1
f 97/1/1 98/2/1 99/3/1 100/4/1
f 101/1/1 102/2/1 103/3/1 104/4/1
f 105/1/1 106/2/1 107/3/1 108/4/1
f 109/1/1 110/2/1 111/3/1 112/4/1
f 113/1/1 114/2/1 115/3/1 116/4/1
f 117/1/1 118/2/1 119/3/1 120/4/1
f 121/1/1 122/2/1 123/3/1 124/4/1
f 125/1/1 126/2/1 127/3/1 128/4/1
f 129/1/1 130/2/1 131/3/1 132/4/1
f 133/1/1 134/2/1 135/3/1 136/4/1
f 137/1/1 138/2/1 139/3/1 140/4/1
f 141/1/1 142/2/1 143/3/1 144/4/1
f 145/1/1 146/2/1 147/3/1 148/4/1
f 149/1/1 150/2/1 151/3/1 152/4/1
f 153/1/1 154/2/1 155/3/1 156/4/1
f 157/1/1 158/2/1 159/3/1 160/4/1
f 161/1/1 162/2/1 163/3/1 164/4/1
f 165/1/1 166/2/1 167/3/1 168/4/1
f 169/1/1 170/2/1 171/3/1 172/4/1
f 173/1/1 174/2/1 175/3/1 176/4/1
f 177/1/1 178/2/1 179/3/1 180/4/1
f 181/1/1 182/2/1 183/3/1 184/4/1
f 185/1/1 186/2/1 187/3/1 188/4/1
f 189/1/1 190/2/1 191/3/1 192/4/1
f 193/1/1 194/2/1 195/3/1 196/4/1
f 197/1/1 198/2/1 199/3/1 200/4/1
f 201/1/1 202/2/1 203/3/1 204/4/1
f 205/1/1 206/2/1 207/3/1 208/4/1
f 209/1/1 210/2/1 211/3/1 212/4/1
f 213/1/1 214/2/1 215/3/1 216/4/1
f 217/1/1 218/2/1 219/3/1 220/4/1
f 221/1/1 222/2/1 223/3/1 224/4/1
f 225/3/1 226/4/1 227/1/1 228/2/1
f 229/3/1 230/4/1 231/1/1 232/2/1
f 233/3/1 234/4/1 235/1/1 236/2/1
f 237/3/1 238/4/1 239/1/1 240/2/1
f 241/3/1 242/4/1 243/1/1 244/2/1
f 245/3/1 246/4/1 247/1/1 248/2/1
f 249/3/1 250/4/1 251/1/1 252/2/1
f 253/3/1 254/4/1 255/1/1 256/2/1
f 257/3/1 258/4/1 259/1/1 260/2/1
f 261/3/1 262/4/1 263/1/1 264/2/1
f 265/3/1 266/4/1 267/1/1 268/2/1
f 269/3/1 270/4/1 271/1/1 272/2/1
f 273/3/1 274/4/1 275/1/1 276/2/1
f 277/3/1 278/4/1 279/1/1 280/2/1
f 281/3/1 282/4/1 283/1/1 284/2/1
f 285/3/1 286/4/1 287/1/1 288/2/1
f 289/3/1 290/4/1 291/1/1 292/2/1
f 293/3/1 294/4/1 295/1/1 296/2/1
f 297/3/1 298/4/1 299/1/1 300/2/1
f 301/3/1 302/4/1 303/1/1 304/2/1
f 305/3/1 306/4/1 307/1/1 308/2/1
f 309/3/1 310/4/1 311/1/1 312/2/1
f 313/3/1 314/4/1 315/1/1 316/2/1
f 317/3/1 318/4/1 319/1/1 320/2/1
f 321/3/1 322/4/1 323/1/1 324/2/1
f 325/3/1 326/4/1 327/1/1 328/2/1
f 329/3/1 330/4/1 331/1/1 332/2/1
f 333/3/1 334/4/1 335/1/1 336/2/1
f 337/3/1 338/4/1 339/1/1 340/2/1
f 341/3/1 342/4/1 343/1/1 344/2/1
f 345/3/1 346/4/1 347/1/1 348/2/1
f 349/3/1 350/4/1 351/1/1 352/2/1
f 353/3/1 354/4/1 355/1/1 356/2/1
f 357/3/1 358/4/1 359/1/1 360/2/1
f 361/3/1 362/4/1 363/1/1 364/2/1
f 365/3/1 366/4/1 367/1/1 368/2/1

