# Tiled2Unity generated file. Do not modify by hand.
# Wavefront file for 'startroom_hallway2_mesh_0004.obj'

# Vertices (Count = 16)
v -2304 -3072 0
v -2368 -3072 0
v -2368 -3008 0
v -2304 -3008 0
v -3072 -3072 0
v -3136 -3072 0
v -3136 -3008 0
v -3072 -3008 0
v -3840 -3072 0
v -3904 -3072 0
v -3904 -3008 0
v -3840 -3008 0
v -4608 -3072 0
v -4672 -3072 0
v -4672 -3008 0
v -4608 -3008 0

# Texture cooridinates (Count = 4)
vt 0 0.75
vt 0.125 0.75
vt 0.125 0.875
vt 0 0.875

# Normal
vn 0 0 -1

# Mesh description
g startroom_hallway2_mesh_0004

# Faces
f 1/1/1 2/2/1 3/3/1 4/4/1
f 5/1/1 6/2/1 7/3/1 8/4/1
f 9/1/1 10/2/1 11/3/1 12/4/1
f 13/1/1 14/2/1 15/3/1 16/4/1

