# Tiled2Unity generated file. Do not modify by hand.
# Wavefront file for 'startroom_hallway2_mesh_0016.obj'

# Vertices (Count = 16)
v -1792 -3648 0
v -1856 -3648 0
v -1856 -3584 0
v -1792 -3584 0
v -2560 -3648 0
v -2624 -3648 0
v -2624 -3584 0
v -2560 -3584 0
v -3328 -3648 0
v -3392 -3648 0
v -3392 -3584 0
v -3328 -3584 0
v -4096 -3648 0
v -4160 -3648 0
v -4160 -3584 0
v -4096 -3584 0

# Texture cooridinates (Count = 4)
vt 0 0
vt 1 0
vt 1 1
vt 0 1

# Normal
vn 0 0 -1

# Mesh description
g startroom_hallway2_mesh_0016

# Faces
f 1/1/1 2/2/1 3/3/1 4/4/1
f 5/1/1 6/2/1 7/3/1 8/4/1
f 9/1/1 10/2/1 11/3/1 12/4/1
f 13/1/1 14/2/1 15/3/1 16/4/1

