# Tiled2Unity generated file. Do not modify by hand.
# Wavefront file for 'Level1Part2_mesh_0014.obj'

# Vertices (Count = 384)
v -3072 -3904 0
v -3136 -3904 0
v -3136 -3840 0
v -3072 -3840 0
v -3136 -3904 0
v -3200 -3904 0
v -3200 -3840 0
v -3136 -3840 0
v -3200 -3904 0
v -3264 -3904 0
v -3264 -3840 0
v -3200 -3840 0
v -3264 -3904 0
v -3328 -3904 0
v -3328 -3840 0
v -3264 -3840 0
v -3584 -3904 0
v -3648 -3904 0
v -3648 -3840 0
v -3584 -3840 0
v -3648 -3904 0
v -3712 -3904 0
v -3712 -3840 0
v -3648 -3840 0
v -3712 -3904 0
v -3776 -3904 0
v -3776 -3840 0
v -3712 -3840 0
v -3776 -3904 0
v -3840 -3904 0
v -3840 -3840 0
v -3776 -3840 0
v -3840 -3904 0
v -3904 -3904 0
v -3904 -3840 0
v -3840 -3840 0
v -3904 -3904 0
v -3968 -3904 0
v -3968 -3840 0
v -3904 -3840 0
v -4224 -3904 0
v -4288 -3904 0
v -4288 -3840 0
v -4224 -3840 0
v -4288 -3904 0
v -4352 -3904 0
v -4352 -3840 0
v -4288 -3840 0
v -4352 -3904 0
v -4416 -3904 0
v -4416 -3840 0
v -4352 -3840 0
v -4416 -3904 0
v -4480 -3904 0
v -4480 -3840 0
v -4416 -3840 0
v -4480 -3904 0
v -4544 -3904 0
v -4544 -3840 0
v -4480 -3840 0
v -512 -4160 0
v -576 -4160 0
v -576 -4096 0
v -512 -4096 0
v -576 -4160 0
v -640 -4160 0
v -640 -4096 0
v -576 -4096 0
v -640 -4160 0
v -704 -4160 0
v -704 -4096 0
v -640 -4096 0
v -704 -4160 0
v -768 -4160 0
v -768 -4096 0
v -704 -4096 0
v -768 -4160 0
v -832 -4160 0
v -832 -4096 0
v -768 -4096 0
v -832 -4160 0
v -896 -4160 0
v -896 -4096 0
v -832 -4096 0
v -960 -4160 0
v -1024 -4160 0
v -1024 -4096 0
v -960 -4096 0
v -1024 -4160 0
v -1088 -4160 0
v -1088 -4096 0
v -1024 -4096 0
v -1088 -4160 0
v -1152 -4160 0
v -1152 -4096 0
v -1088 -4096 0
v -1152 -4160 0
v -1216 -4160 0
v -1216 -4096 0
v -1152 -4096 0
v -1216 -4160 0
v -1280 -4160 0
v -1280 -4096 0
v -1216 -4096 0
v -1280 -4160 0
v -1344 -4160 0
v -1344 -4096 0
v -1280 -4096 0
v -1344 -4160 0
v -1408 -4160 0
v -1408 -4096 0
v -1344 -4096 0
v -1408 -4160 0
v -1472 -4160 0
v -1472 -4096 0
v -1408 -4096 0
v -1472 -4160 0
v -1536 -4160 0
v -1536 -4096 0
v -1472 -4096 0
v -1536 -4160 0
v -1600 -4160 0
v -1600 -4096 0
v -1536 -4096 0
v -1600 -4160 0
v -1664 -4160 0
v -1664 -4096 0
v -1600 -4096 0
v -1664 -4160 0
v -1728 -4160 0
v -1728 -4096 0
v -1664 -4096 0
v -1728 -4160 0
v -1792 -4160 0
v -1792 -4096 0
v -1728 -4096 0
v -1792 -4160 0
v -1856 -4160 0
v -1856 -4096 0
v -1792 -4096 0
v -1856 -4160 0
v -1920 -4160 0
v -1920 -4096 0
v -1856 -4096 0
v -1920 -4160 0
v -1984 -4160 0
v -1984 -4096 0
v -1920 -4096 0
v -1984 -4160 0
v -2048 -4160 0
v -2048 -4096 0
v -1984 -4096 0
v -2048 -4160 0
v -2112 -4160 0
v -2112 -4096 0
v -2048 -4096 0
v -2112 -4160 0
v -2176 -4160 0
v -2176 -4096 0
v -2112 -4096 0
v -2176 -4160 0
v -2240 -4160 0
v -2240 -4096 0
v -2176 -4096 0
v -2240 -4160 0
v -2304 -4160 0
v -2304 -4096 0
v -2240 -4096 0
v -2304 -4160 0
v -2368 -4160 0
v -2368 -4096 0
v -2304 -4096 0
v -2368 -4160 0
v -2432 -4160 0
v -2432 -4096 0
v -2368 -4096 0
v -2432 -4160 0
v -2496 -4160 0
v -2496 -4096 0
v -2432 -4096 0
v -2496 -4160 0
v -2560 -4160 0
v -2560 -4096 0
v -2496 -4096 0
v -2560 -4160 0
v -2624 -4160 0
v -2624 -4096 0
v -2560 -4096 0
v -2624 -4160 0
v -2688 -4160 0
v -2688 -4096 0
v -2624 -4096 0
v -2688 -4160 0
v -2752 -4160 0
v -2752 -4096 0
v -2688 -4096 0
v -2752 -4160 0
v -2816 -4160 0
v -2816 -4096 0
v -2752 -4096 0
v -2816 -4160 0
v -2880 -4160 0
v -2880 -4096 0
v -2816 -4096 0
v -2880 -4160 0
v -2944 -4160 0
v -2944 -4096 0
v -2880 -4096 0
v -2944 -4160 0
v -3008 -4160 0
v -3008 -4096 0
v -2944 -4096 0
v -3072 -4736 0
v -3136 -4736 0
v -3136 -4672 0
v -3072 -4672 0
v -3136 -4736 0
v -3200 -4736 0
v -3200 -4672 0
v -3136 -4672 0
v -3200 -4736 0
v -3264 -4736 0
v -3264 -4672 0
v -3200 -4672 0
v -3264 -4736 0
v -3328 -4736 0
v -3328 -4672 0
v -3264 -4672 0
v -3328 -4736 0
v -3392 -4736 0
v -3392 -4672 0
v -3328 -4672 0
v -3392 -4736 0
v -3456 -4736 0
v -3456 -4672 0
v -3392 -4672 0
v -3456 -4736 0
v -3520 -4736 0
v -3520 -4672 0
v -3456 -4672 0
v -3520 -4736 0
v -3584 -4736 0
v -3584 -4672 0
v -3520 -4672 0
v -3584 -4736 0
v -3648 -4736 0
v -3648 -4672 0
v -3584 -4672 0
v -3648 -4736 0
v -3712 -4736 0
v -3712 -4672 0
v -3648 -4672 0
v -3712 -4736 0
v -3776 -4736 0
v -3776 -4672 0
v -3712 -4672 0
v -3776 -4736 0
v -3840 -4736 0
v -3840 -4672 0
v -3776 -4672 0
v -3840 -4736 0
v -3904 -4736 0
v -3904 -4672 0
v -3840 -4672 0
v -3904 -4736 0
v -3968 -4736 0
v -3968 -4672 0
v -3904 -4672 0
v -3968 -4736 0
v -4032 -4736 0
v -4032 -4672 0
v -3968 -4672 0
v -4032 -4736 0
v -4096 -4736 0
v -4096 -4672 0
v -4032 -4672 0
v -4096 -4736 0
v -4160 -4736 0
v -4160 -4672 0
v -4096 -4672 0
v -4160 -4736 0
v -4224 -4736 0
v -4224 -4672 0
v -4160 -4672 0
v -4224 -4736 0
v -4288 -4736 0
v -4288 -4672 0
v -4224 -4672 0
v -4288 -4736 0
v -4352 -4736 0
v -4352 -4672 0
v -4288 -4672 0
v -4352 -4736 0
v -4416 -4736 0
v -4416 -4672 0
v -4352 -4672 0
v -4416 -4736 0
v -4480 -4736 0
v -4480 -4672 0
v -4416 -4672 0
v -4480 -4736 0
v -4544 -4736 0
v -4544 -4672 0
v -4480 -4672 0
v -4608 -5504 0
v -4672 -5504 0
v -4672 -5440 0
v -4608 -5440 0
v -4672 -5504 0
v -4736 -5504 0
v -4736 -5440 0
v -4672 -5440 0
v -4736 -5504 0
v -4800 -5504 0
v -4800 -5440 0
v -4736 -5440 0
v -4800 -5504 0
v -4864 -5504 0
v -4864 -5440 0
v -4800 -5440 0
v -4864 -5504 0
v -4928 -5504 0
v -4928 -5440 0
v -4864 -5440 0
v -4928 -5504 0
v -4992 -5504 0
v -4992 -5440 0
v -4928 -5440 0
v -4992 -5504 0
v -5056 -5504 0
v -5056 -5440 0
v -4992 -5440 0
v -5056 -5504 0
v -5120 -5504 0
v -5120 -5440 0
v -5056 -5440 0
v -5120 -5504 0
v -5184 -5504 0
v -5184 -5440 0
v -5120 -5440 0
v -5184 -5504 0
v -5248 -5504 0
v -5248 -5440 0
v -5184 -5440 0
v -5248 -5504 0
v -5312 -5504 0
v -5312 -5440 0
v -5248 -5440 0
v -5312 -5504 0
v -5376 -5504 0
v -5376 -5440 0
v -5312 -5440 0
v -5376 -5504 0
v -5440 -5504 0
v -5440 -5440 0
v -5376 -5440 0
v -5440 -5504 0
v -5504 -5504 0
v -5504 -5440 0
v -5440 -5440 0
v -5504 -5504 0
v -5568 -5504 0
v -5568 -5440 0
v -5504 -5440 0
v -5568 -5504 0
v -5632 -5504 0
v -5632 -5440 0
v -5568 -5440 0
v -5632 -5504 0
v -5696 -5504 0
v -5696 -5440 0
v -5632 -5440 0
v -5696 -5504 0
v -5760 -5504 0
v -5760 -5440 0
v -5696 -5440 0
v -5760 -5504 0
v -5824 -5504 0
v -5824 -5440 0
v -5760 -5440 0
v -5824 -5504 0
v -5888 -5504 0
v -5888 -5440 0
v -5824 -5440 0

# Texture cooridinates (Count = 4)
vt 0 0
vt 1 0
vt 1 1
vt 0 1

# Normal
vn 0 0 -1

# Mesh description
g Level1Part2_mesh_0014

# Faces
f 1/1/1 2/2/1 3/3/1 4/4/1
f 5/1/1 6/2/1 7/3/1 8/4/1
f 9/1/1 10/2/1 11/3/1 12/4/1
f 13/1/1 14/2/1 15/3/1 16/4/1
f 17/1/1 18/2/1 19/3/1 20/4/1
f 21/1/1 22/2/1 23/3/1 24/4/1
f 25/1/1 26/2/1 27/3/1 28/4/1
f 29/1/1 30/2/1 31/3/1 32/4/1
f 33/1/1 34/2/1 35/3/1 36/4/1
f 37/1/1 38/2/1 39/3/1 40/4/1
f 41/1/1 42/2/1 43/3/1 44/4/1
f 45/1/1 46/2/1 47/3/1 48/4/1
f 49/1/1 50/2/1 51/3/1 52/4/1
f 53/1/1 54/2/1 55/3/1 56/4/1
f 57/1/1 58/2/1 59/3/1 60/4/1
f 61/1/1 62/2/1 63/3/1 64/4/1
f 65/1/1 66/2/1 67/3/1 68/4/1
f 69/1/1 70/2/1 71/3/1 72/4/1
f 73/1/1 74/2/1 75/3/1 76/4/1
f 77/1/1 78/2/1 79/3/1 80/4/1
f 81/1/1 82/2/1 83/3/1 84/4/1
f 85/1/1 86/2/1 87/3/1 88/4/1
f 89/1/1 90/2/1 91/3/1 92/4/1
f 93/1/1 94/2/1 95/3/1 96/4/1
f 97/1/1 98/2/1 99/3/1 100/4/1
f 101/1/1 102/2/1 103/3/1 104/4/1
f 105/1/1 106/2/1 107/3/1 108/4/1
f 109/1/1 110/2/1 111/3/1 112/4/1
f 113/1/1 114/2/1 115/3/1 116/4/1
f 117/1/1 118/2/1 119/3/1 120/4/1
f 121/1/1 122/2/1 123/3/1 124/4/1
f 125/1/1 126/2/1 127/3/1 128/4/1
f 129/1/1 130/2/1 131/3/1 132/4/1
f 133/1/1 134/2/1 135/3/1 136/4/1
f 137/1/1 138/2/1 139/3/1 140/4/1
f 141/1/1 142/2/1 143/3/1 144/4/1
f 145/1/1 146/2/1 147/3/1 148/4/1
f 149/1/1 150/2/1 151/3/1 152/4/1
f 153/1/1 154/2/1 155/3/1 156/4/1
f 157/1/1 158/2/1 159/3/1 160/4/1
f 161/1/1 162/2/1 163/3/1 164/4/1
f 165/1/1 166/2/1 167/3/1 168/4/1
f 169/1/1 170/2/1 171/3/1 172/4/1
f 173/1/1 174/2/1 175/3/1 176/4/1
f 177/1/1 178/2/1 179/3/1 180/4/1
f 181/1/1 182/2/1 183/3/1 184/4/1
f 185/1/1 186/2/1 187/3/1 188/4/1
f 189/1/1 190/2/1 191/3/1 192/4/1
f 193/1/1 194/2/1 195/3/1 196/4/1
f 197/1/1 198/2/1 199/3/1 200/4/1
f 201/1/1 202/2/1 203/3/1 204/4/1
f 205/1/1 206/2/1 207/3/1 208/4/1
f 209/1/1 210/2/1 211/3/1 212/4/1
f 213/1/1 214/2/1 215/3/1 216/4/1
f 217/1/1 218/2/1 219/3/1 220/4/1
f 221/1/1 222/2/1 223/3/1 224/4/1
f 225/1/1 226/2/1 227/3/1 228/4/1
f 229/1/1 230/2/1 231/3/1 232/4/1
f 233/1/1 234/2/1 235/3/1 236/4/1
f 237/1/1 238/2/1 239/3/1 240/4/1
f 241/1/1 242/2/1 243/3/1 244/4/1
f 245/1/1 246/2/1 247/3/1 248/4/1
f 249/1/1 250/2/1 251/3/1 252/4/1
f 253/1/1 254/2/1 255/3/1 256/4/1
f 257/1/1 258/2/1 259/3/1 260/4/1
f 261/1/1 262/2/1 263/3/1 264/4/1
f 265/1/1 266/2/1 267/3/1 268/4/1
f 269/1/1 270/2/1 271/3/1 272/4/1
f 273/1/1 274/2/1 275/3/1 276/4/1
f 277/1/1 278/2/1 279/3/1 280/4/1
f 281/1/1 282/2/1 283/3/1 284/4/1
f 285/1/1 286/2/1 287/3/1 288/4/1
f 289/1/1 290/2/1 291/3/1 292/4/1
f 293/1/1 294/2/1 295/3/1 296/4/1
f 297/1/1 298/2/1 299/3/1 300/4/1
f 301/1/1 302/2/1 303/3/1 304/4/1
f 305/1/1 306/2/1 307/3/1 308/4/1
f 309/1/1 310/2/1 311/3/1 312/4/1
f 313/1/1 314/2/1 315/3/1 316/4/1
f 317/1/1 318/2/1 319/3/1 320/4/1
f 321/1/1 322/2/1 323/3/1 324/4/1
f 325/1/1 326/2/1 327/3/1 328/4/1
f 329/1/1 330/2/1 331/3/1 332/4/1
f 333/1/1 334/2/1 335/3/1 336/4/1
f 337/1/1 338/2/1 339/3/1 340/4/1
f 341/1/1 342/2/1 343/3/1 344/4/1
f 345/1/1 346/2/1 347/3/1 348/4/1
f 349/1/1 350/2/1 351/3/1 352/4/1
f 353/1/1 354/2/1 355/3/1 356/4/1
f 357/1/1 358/2/1 359/3/1 360/4/1
f 361/1/1 362/2/1 363/3/1 364/4/1
f 365/1/1 366/2/1 367/3/1 368/4/1
f 369/1/1 370/2/1 371/3/1 372/4/1
f 373/1/1 374/2/1 375/3/1 376/4/1
f 377/1/1 378/2/1 379/3/1 380/4/1
f 381/1/1 382/2/1 383/3/1 384/4/1

